<svg width="1393" height="1133" viewBox="0 0 1393 1133" fill="none" xmlns="http://www.w3.org/2000/svg">
<path d="M151.922 477.876L439.572 419.772L326.167 714.007L151.922 477.876Z" fill="#A61C3C"/>
<path d="M448.37 428.388L722.385 323.344L659.391 632.321L448.37 428.388Z" fill="#A61C3C"/>
<path d="M250.069 191.391L528.903 99.903L450.842 405.421L250.069 191.391Z" fill="#A61C3C"/>
<path d="M241.454 200.211L444.999 411.607L135.907 474.033L241.454 200.211Z" fill="#A61C3C"/>
<path d="M436.643 433.734L644.414 640.977L336.645 709.631L436.643 433.734Z" fill="#A61C3C"/>
<path d="M576.244 65.6817L812.587 239.638L518.49 353.402L576.244 65.6817Z" fill="#38726C"/>
<path d="M350.28 714.871L636.994 652.313L528.165 948.271L350.28 714.871Z" fill="#0E0E2C"/>
<path d="M738.856 778.225L932.988 998.296L621.468 1047.18L738.856 778.225Z" fill="#0E0E2C"/>
<path d="M665.244 921.483L609.653 1019.7L553.285 935.729L665.244 921.483Z" fill="#0E0E2C"/>
<path d="M594.635 809.142L664.284 910.632L552.332 924.734L594.635 809.142Z" fill="#0E0E2C"/>
<path d="M647.703 675.589L716.481 777.671L604.413 790.815L647.703 675.589Z" fill="#0E0E2C"/>
<path d="M673.76 900.484L604.933 798.434L716.995 785.237L673.76 900.484Z" fill="#0E0E2C"/>
</svg>
