<svg width="1440" height="1440" viewBox="0 0 1440 1440" fill="none" xmlns="http://www.w3.org/2000/svg">
<circle cx="720" cy="720" r="720" fill="#0E0E2C"/>
<circle cx="720" cy="720" r="720" fill="#0E0E2C"/>
<path d="M355.922 684.876L643.572 626.772L530.167 921.007L355.922 684.876Z" fill="#FB416C"/>
<path d="M652.37 635.388L926.385 530.344L863.391 839.321L652.37 635.388Z" fill="#FB416C"/>
<path d="M454.069 398.391L732.903 306.903L654.842 612.421L454.069 398.391Z" fill="#FB416C"/>
<path d="M445.454 407.211L648.999 618.607L339.907 681.033L445.454 407.211Z" fill="#FB416C"/>
<path d="M640.643 640.734L848.414 847.977L540.645 916.631L640.643 640.734Z" fill="#FB416C"/>
<path d="M780.244 272.682L1016.59 446.638L722.49 560.402L780.244 272.682Z" fill="#4DBDB2"/>
<path d="M554.28 921.871L840.994 859.313L732.165 1155.27L554.28 921.871Z" fill="white"/>
<path d="M942.856 985.225L1136.99 1205.3L825.468 1254.18L942.856 985.225Z" fill="white"/>
<path d="M869.244 1128.48L813.653 1226.7L757.285 1142.73L869.244 1128.48Z" fill="white"/>
<path d="M798.635 1016.14L868.284 1117.63L756.332 1131.73L798.635 1016.14Z" fill="white"/>
<path d="M851.703 882.589L920.481 984.671L808.413 997.815L851.703 882.589Z" fill="white"/>
<path d="M877.76 1107.48L808.933 1005.43L920.995 992.237L877.76 1107.48Z" fill="white"/>
</svg>
